<svg viewBox="0 0 1000 1000" xmlns="http://www.w3.org/2000/svg">
  <rect width="1000" height="1000" fill="#FFFFFF"/>
  <rect x="700" y="100" width="260" height="260" fill="#F6F3EC" opacity="1" transform="rotate(12 830 230)"/>
  <circle cx="180" cy="800" r="180" fill="#F6F3EC" opacity="1"/>
  <polygon points="820,660 920,860 720,860" fill="#F6F3EC" opacity="1" transform="rotate(-10 820 760)"/>
  <path d="M 320 210.1186015147171 Q 320 210.1186015147171 399.93096024200133 210.43362220400633 479.8619204840026 210.74864289329557 535.9852856032812 228.86214742058297 592.1086507225599 246.97565194787035 617.1893739656398 370.6666985303722 642.2700972087198 494.357745112874 559.1006470001846 547.3714517239787 475.9311967916495 600.3851583350832 476.01593703828024 601.3779958996308 476.100677284911 602.3708334641784 475.9453459814131 603.3550994470963 475.7900146779152 604.3393654300143 475.4036396869461 605.2578542461299 475.017264695977 606.1763430622455 474.4223021501656 606.975672098411 473.8273396043542 607.7750011345765 473.05836875481725 608.4087133496539 472.28939790528034 609.0424255647312 471.39111137392285 609.4736895750051 470.4928248425654 609.904953585279 469.5174310847957 610.1087043062096 468.54203732702604 610.3124550271402 467.5462262738744 610.2768504572537 466.5504152207228 610.2412458873672 465.59206345738636 609.9683553659384 464.6337116940499 609.6954648445095 463.7685186700418 609.2011487814655 462.9033256460336 608.7068327184214 462.18157642055996 608.0198207865717 461.45982719508635 607.3328088547219 460.923469867043 606.4930302198245 460.3871125389997 605.6532515849271 460.0673202214932 604.7095142206994 459.7475279039868 603.7657768564716 420.57649338335295 502.6846671408507 381.40545886271906 401.6035574252299 381.13098830493266 400.2946123456139 380.85651774714626 398.985667265998 381.0143767580422 397.6576040742706 381.17223576893815 396.3295408825431 381.74589646840485 395.1214081454526 382.31955716787155 393.9132754083621 383.2489571292432 392.951564942398 384.17835709061484 391.989854476434 385.366187892598 391.3752576212497 386.5540186945812 390.7606607660655 387.8759141386514 390.5575259746366 389.19780958272156 390.35439118320767 390.5153668669381 390.58398672181914 391.83292415115466 390.8135822604306 393.00819468005875 391.45186941558245 394.18346520896284 392.09015657073434 395.0933978479369 393.07030650879074 396.003330486911 394.0504564468472 396.5526550484556 395.2698472105592 397.1019796100002 396.48923797427125 397.23318166751403 397.82019902879034 397.3643837250279 399.15116008330943 397.0637263884552 400.4543394548878 396.76306905188255 401.7575188264662 396.06203122372835 402.89647329089365 395.3609933955742 404.0354277553211 394.33297392150234 404.89090847951735 393.3049544474304 405.7463892037136 392.05758723774693 406.22882713003025 390.8102200280634 406.711265056347 389.4741047588951 406.77014880654747 388.1379894897268 406.829032556748 386.8530177824558 406.4581969866426 385.5680460751848 406.08736141653714 384.4687548067619 405.32563310820683 383.3694635383391 404.5639047998766 382.570948794753 403.4910369082804 381.77243405116695 402.41816901668426 381.3583005368585 401.1464910932819 380.94416702255006 399.87481316987953 380.9577746257879 398.53747022894163 380.97138222902583 397.2001272880037 381.4113062301591 395.9371394884707 381.8512302312923 394.6741516889376 382.6714104712735 393.61775418681697 383.4915907112546 392.5613566846963 384.6061541024512 391.8221545773219 385.72071749364784 391.0829524699475 387.0129689547854 390.7383404130919 388.3052204159229 390.3937283562363 389.6398608778991 390.479787323221 390.9745013398752 390.5658462902057 392.21179359401015 391.07356588447004 393.44908584814516 391.5812854787344 394.45948506881757 392.45750732473397 395.46988428949004 393.33372917073353 396.14760141157603 394.48671260989204 396.8253185336621 395.6396960490506 396.82487124405554 395.63853955956665 396.82442395444895 395.63738307008265 436.3777258171274 498.01086611931396 475.93102767980577 600.3843491685453 476.0158672097691 601.377178254104 476.1007067397325 602.3700073396627 475.9454738636094 603.3542888507897 475.79024098748624 604.3385703619166 475.4039578473305 605.2570978109388 475.0176747071747 606.175625259961 474.42279209724165 606.9750137883843 473.82790948730855 607.7744023168078 473.0590020128378 608.4081914258014 472.29009453836716 609.041980534795 471.3918511379021 609.4733343715657 470.493607737437 609.9046882083362 469.5182343596164 610.1085364676236 468.5428609817957 610.312384726911 467.54704637316615 610.2768797383077 466.55123176453657 610.2413747497044 465.5928527169398 609.9685800648163 464.63447366934304 609.695785379928 463.76923121805464 609.2015558386578 462.9039887667662 608.7073262973876 462.18217084370826 608.0203865438953 461.4603529206503 607.333446790403 460.9239116174254 606.4937217954372 460.3874703142005 605.6539968004714 460.06758362455673 604.710291420194 459.747696934913 603.7665860399167 544.9729108005965 545.2410454635212 630.1981246662801 486.7155048871259 605.42786197186 371.8199264696278 580.65759927744 256.92434805212963 530.1478393967187 243.08785257941702 479.6380795159974 229.25135710670443 399.81903975799867 229.56637779599367 320 229.8813984852829 318.8175763777257 229.73782164922284 317.6351527554513 229.59424481316282 316.5214516496595 229.17185899744044 315.4077505438677 228.74947318171803 314.427500315154 228.07282746978882 313.44725008644036 227.39618175785958 312.65742292415456 226.50460283029292 311.86759576186876 225.61302390272624 311.31409645779274 224.55833036868293 310.76059715371673 223.50363683463962 310.47559511340944 222.34712753187284 310.19059307310215 221.1906182291061 310.190652628537 219.999509532631 310.1907121839719 218.80840083615595 310.4758298737843 217.6519200393757 310.76094756359663 216.49543924259547 311.31455233425834 215.44080106375594 311.8681571049201 214.38616288491644 312.65807342114937 213.49466294452375 313.44798973737863 212.60316300413106 314.42830762576216 211.92661532060777 315.4086255141456 211.25006763708447 316.5223688529504 210.8277931935844 317.6361121917553 210.40551875008435 318.81855016580107 210.26206015710423 320.00098813984687 210.1186015641241 320.00049406992343 210.1186015394206 Z" fill="#141414"/>
  <path d="M 628.2605540003427 211.73944599965728 Q 628.2605540003427 211.73944599965728 643.8435157707562 228.1064842292438 659.4264775411697 244.4735224588303 660.424442254636 245.86288175837606 661.4224069681023 247.25224105792182 661.9244899265523 248.88752865812933 662.4265728850021 250.52281625833686 662.3802058701488 252.2328171157904 662.3338388552955 253.94281797324396 661.7438765058339 255.54849454677174 661.1539141563723 257.1541711202995 660.0821256860258 258.48740864879574 659.0103372156794 259.820646177292 657.5689391602182 260.7418543395826 656.1275411047569 261.6630625018732 654.4674482210798 262.07579056019097 652.8073553374027 262.48851861850875 651.1023797886526 262.3495538361982 649.3974042399025 262.2105890538877 647.8260574161034 261.5344810803399 646.2547105923044 260.85837310679216 644.9815129207034 259.71591062531274 643.7083152491024 258.5734481438334 642.8665708620076 257.08424727781403 642.0248264749129 255.5950464117947 641.7026662318522 253.9150268850185 641.3805059887914 252.2350073582423 641.6116601522551 250.54006765864483 641.8428143157188 248.84512795904735 642.6030809837737 247.31272872059702 643.3633476518285 245.78032948214673 644.5731267036381 244.57091330962345 645.7829057554477 243.36149713710017 647.315533004937 242.601690223022 648.8481602544264 241.84188330894384 650.5431692239996 241.61123763778426 652.2381781935728 241.3805919666247 653.9181009966767 241.70325620103873 655.5980237997804 242.02592043545275 657.0869720754733 242.8681115449221 658.5759203511664 243.71030265439146 659.7180008219392 244.98384300743783 660.860081292712 246.25738336048423 661.535717831795 247.8289329459617 662.2113543708778 249.40048253143917 662.3498076542779 251.1054996928994 662.4882609376781 252.81051685435966 662.0750348700755 254.470485844917 661.6618088024728 256.1304548354743 660.7401682622265 257.5715764636281 659.8185277219801 259.0126980917819 658.4849687169433 260.0840865426453 657.1514097119065 261.1554749935087 655.545556221932 261.7449556134572 653.9397027319575 262.3344362334057 652.2296880413497 262.380290245923 650.519673350742 262.4261442584402 648.8845364490077 261.9235707363114 647.2493995472734 261.42099721418253 645.8603396996583 260.42261573784106 644.4712798520433 259.4242342614995 644.4724011554368 259.42535590133457 644.4735224588304 259.4264775411697 628.1064842292438 243.8435157707562 611.7394459996573 228.26055400034272 610.8710011142105 227.15205722158572 610.0025562287636 226.04356044282872 609.424637294173 224.7594376556254 608.8467183595822 223.47531486842206 608.5929140514793 222.0901993494989 608.3391097433765 220.70508383057572 608.4241711800735 219.2994785589719 608.5092326167703 217.8938732873681 608.9282160235696 216.54947210751135 609.3471994303688 215.2050709276546 610.0757534719814 214.0000104992846 610.804307513594 212.79495007091458 611.8000885948904 211.7992685627477 612.795869676187 210.80358705458082 614.0010029539358 210.07515352265364 615.2061362316845 209.34671999072646 616.5505793031598 208.92787102613985 617.8950223746351 208.50902206155325 619.3006361453546 208.42410118580858 620.7062499160741 208.33918031006388 622.0913400476409 208.59312312844938 623.4764301792077 208.84706594683487 624.760495168097 209.42511329081452 626.0445601569863 210.00316063479417 627.1529700857125 210.87171636557645 628.2613800144386 211.7402720963587 628.2609670073907 211.739859048008 Z" fill="#141414"/>
  <path d="M 370 329.3504305175781 Q 370 329.3504305175781 397.95625 329.7628713214111 425.9125 330.17531212524415 452.960171875 330.4743317080231 480.00784375 330.773351290802 506.6307553515625 330.9901404883167 533.253666953125 331.2069296858314 534.6575304565947 331.4370888815911 536.0613939600645 331.66724807735073 537.318272584137 332.3336279360775 538.5751512082095 333.0000077948043 539.5534494291605 334.03283816938233 540.5317476501117 335.0656685439603 541.1290373859622 336.3568118215305 541.7263271218127 337.64795509910067 541.8800719795498 339.06222823767274 542.033816837287 340.4765013762448 541.727919689721 341.8658296048784 541.4220225421551 343.25515783351193 540.6885109013851 344.47407811992207 539.9549992606153 345.69299840633215 538.8706719890583 346.6138894747679 537.7863447175013 347.53478054320374 536.4647311667238 348.06122485570836 535.1431176159464 348.58766916821304 533.722591073587 348.6645478662995 532.3020645312275 348.7414265643859 530.9313545012537 348.3606904280705 529.56064447128 347.97995429175506 528.3832646556625 347.1814664950146 527.205884840045 346.38297869827414 526.3451072162768 345.25034112420764 525.4843295925087 344.11770355014113 525.0302778050218 342.7695036517407 524.576226017535 341.4213037533402 524.5764394083371 339.9986984158585 524.5766527991394 338.5760930783768 525.0311090261575 337.22802945617957 525.4855652531755 335.8799658339823 526.3466826294757 334.74758654416775 527.2078000057759 333.6152072543532 528.3854193147467 332.81707270748404 529.5630386237177 332.01893816061494 530.9338628128487 331.6386132544355 532.3046870019797 331.25828834825603 533.7251904168063 331.33559320083924 535.1456938316329 331.41289805342245 536.4671493896465 331.9397388262964 537.7886049476599 332.4665795991703 538.8726559031057 333.3877959243426 539.9567068585516 334.30901224951486 540.6898527902331 335.52815253456254 541.4229987219145 336.74729281961015 541.7284790572528 338.13671275486683 542.033959392591 339.5261326901235 541.8797902598371 340.9403596415966 541.7256211270833 342.35458659306977 541.1279440751334 343.64555062562044 540.5302670231835 344.9365146581711 539.551658997148 345.96905149680987 538.5730509711127 347.0015883354486 537.3159724896451 347.6675911006067 536.0588940081775 348.3335938657649 534.654961520124 348.5633318921226 533.2510290320704 348.7930699184804 533.2523479925977 348.7930701163245 533.253666953125 348.7930703141686 506.6307553515625 349.0098595116833 480.00784375 349.226648709198 452.960171875 349.5256682919769 425.9125 349.82468787475585 397.95625 350.2371286785889 370 350.6495694824219 368.7256558328437 350.4948311127504 367.45131166568734 350.3400927430788 366.251032441401 349.8848710353798 365.05075321711456 349.42964932768075 363.99429922060847 348.7004017889942 362.93784522410243 347.97115425030773 362.0866176112909 347.01026478184576 361.2353899984794 346.04937531338373 360.6388621582138 344.91269085620047 360.0423343179482 343.7760063990172 359.7351764763324 342.5295911071711 359.4280186347167 341.2831758153249 359.42808281993734 339.99947140414054 359.42814700515794 338.71576699295616 359.73542948676686 337.4693824231262 360.0427119683758 336.22299785329625 360.63935347410427 335.08637305458035 361.23599497983275 333.94974825586445 362.0873186773348 332.98894391496805 362.9386423748369 332.02813957407164 363.99516929081443 331.29899768443084 365.051696206792 330.56985579479004 366.2520209472477 330.11475411728935 367.45234568770337 329.65965243978866 368.7267053223249 329.5050415053073 370.00106495694644 329.35043057082595 370.00053247847325 329.350430544202 Z" fill="#141414"/>
  <path d="M 370 379.3504305175781 Q 370 379.3504305175781 403.28125 379.7628713214111 436.5625 380.17531212524415 468.762109375 380.4743317080231 500.96171875 380.773351290802 532.6556611328125 380.9901404883167 564.349603515625 381.2069296858314 565.7534670190946 381.4370888815911 567.1573305225644 381.66724807735073 568.414209146637 382.3336279360775 569.6710877707094 383.0000077948043 570.6493859916604 384.03283816938233 571.6276842126116 385.0656685439603 572.2249739484621 386.3568118215305 572.8222636843126 387.64795509910067 572.9760085420497 389.06222823767274 573.1297533997869 390.4765013762448 572.8238562522209 391.8658296048784 572.517959104655 393.25515783351193 571.784447463885 394.47407811992207 571.0509358231152 395.69299840633215 569.9666085515582 396.6138894747679 568.8822812800012 397.53478054320374 567.5606677292237 398.06122485570836 566.2390541784463 398.58766916821304 564.8185276360869 398.6645478662995 563.3980010937274 398.7414265643859 562.0272910637536 398.3606904280705 560.65658103378 397.97995429175506 559.4792012181624 397.1814664950146 558.3018214025449 396.38297869827414 557.4410437787767 395.25034112420764 556.5802661550086 394.11770355014113 556.1262143675217 392.7695036517407 555.6721625800349 391.4213037533402 555.672375970837 389.9986984158585 555.6725893616393 388.5760930783768 556.1270455886574 387.22802945617957 556.5815018156754 385.8799658339823 557.4426191919756 384.74758654416775 558.3037365682758 383.6152072543532 559.4813558772466 382.81707270748404 560.6589751862176 382.01893816061494 562.0297993753486 381.6386132544355 563.4006235644796 381.25828834825603 564.8211269793062 381.33559320083924 566.2416303941328 381.41289805342245 567.5630859521464 381.9397388262964 568.8845415101598 382.4665795991703 569.9685924656056 383.3877959243426 571.0526434210515 384.30901224951486 571.785789352733 385.52815253456254 572.5189352844144 386.74729281961015 572.8244156197527 388.13671275486683 573.1298959550909 389.5261326901235 572.975726822337 390.9403596415966 572.8215576895832 392.35458659306977 572.2238806376333 393.64555062562044 571.6262035856834 394.9365146581711 570.6475955596479 395.96905149680987 569.6689875336126 397.0015883354486 568.411909052145 397.6675911006067 567.1548305706774 398.3335938657649 565.7508980826238 398.5633318921226 564.3469655945703 398.7930699184804 564.3482845550976 398.7930701163245 564.349603515625 398.7930703141686 532.6556611328125 399.0098595116833 500.96171875 399.226648709198 468.762109375 399.5256682919769 436.5625 399.82468787475585 403.28125 400.2371286785889 370 400.6495694824219 368.7256558328437 400.4948311127504 367.45131166568734 400.3400927430788 366.251032441401 399.8848710353798 365.05075321711456 399.42964932768075 363.99429922060847 398.7004017889942 362.93784522410243 397.97115425030773 362.0866176112909 397.01026478184576 361.2353899984794 396.04937531338373 360.6388621582138 394.91269085620047 360.0423343179482 393.7760063990172 359.7351764763324 392.5295911071711 359.4280186347167 391.2831758153249 359.42808281993734 389.99947140414054 359.42814700515794 388.71576699295616 359.73542948676686 387.4693824231262 360.0427119683758 386.22299785329625 360.63935347410427 385.08637305458035 361.23599497983275 383.94974825586445 362.0873186773348 382.98894391496805 362.9386423748369 382.02813957407164 363.99516929081443 381.29899768443084 365.051696206792 380.56985579479004 366.2520209472477 380.11475411728935 367.45234568770337 379.65965243978866 368.7267053223249 379.5050415053073 370.00106495694644 379.35043057082595 370.00053247847325 379.350430544202 Z" fill="#141414"/>
  <path d="M 370 429.3504305175781 Q 370 429.3504305175781 395.29375 429.7628713214111 420.5875 430.17531212524415 445.05920312499995 430.4743317080231 469.53090625 430.773351290802 493.61830246093746 430.9901404883167 517.705698671875 431.2069296858314 519.1095621753448 431.4370888815911 520.5134256788144 431.66724807735073 521.7703043028869 432.3336279360775 523.0271829269594 433.0000077948043 524.0054811479106 434.03283816938233 524.9837793688616 435.0656685439603 525.5810691047121 436.3568118215305 526.1783588405626 437.64795509910067 526.3321036982998 439.06222823767274 526.4858485560369 440.4765013762448 526.179951408471 441.8658296048784 525.874054260905 443.25515783351193 525.1405426201352 444.47407811992207 524.4070309793652 445.69299840633215 523.3227037078082 446.6138894747679 522.2383764362512 447.53478054320374 520.9167628854738 448.06122485570836 519.5951493346963 448.58766916821304 518.1746227923369 448.6645478662995 516.7540962499775 448.7414265643859 515.3833862200038 448.3606904280705 514.01267619003 447.97995429175506 512.8352963744125 447.1814664950146 511.6579165587949 446.38297869827414 510.79713893502685 445.25034112420764 509.93636131125874 444.11770355014113 509.48230952377185 442.7695036517407 509.02825773628496 441.4213037533402 509.0284711270872 439.9986984158585 509.0286845178894 438.5760930783768 509.4831407449074 437.22802945617957 509.9375969719254 435.8799658339823 510.79871434822564 434.74758654416775 511.6598317245259 433.6152072543532 512.8374510334968 432.81707270748404 514.0150703424677 432.01893816061494 515.3858945315986 431.6386132544355 516.7567187207296 431.25828834825603 518.1772221355562 431.33559320083924 519.5977255503828 431.41289805342245 520.9191811083963 431.9397388262964 522.2406366664098 432.4665795991703 523.3246876218557 433.3877959243426 524.4087385773015 434.30901224951486 525.1418845089829 435.52815253456254 525.8750304406644 436.74729281961015 526.1805107760026 438.13671275486683 526.4859911113409 439.5261326901235 526.3318219785871 440.9403596415966 526.1776528458332 442.35458659306977 525.5799757938832 443.64555062562044 524.9822987419334 444.9365146581711 524.0036907158981 445.96905149680987 523.0250826898626 447.0015883354486 521.768004208395 447.6675911006067 520.5109257269274 448.3335938657649 519.1069932388739 448.5633318921226 517.7030607508203 448.7930699184804 517.7043797113477 448.7930701163245 517.705698671875 448.7930703141686 493.61830246093746 449.0098595116833 469.53090625 449.226648709198 445.05920312499995 449.5256682919769 420.5875 449.82468787475585 395.29375 450.2371286785889 370 450.6495694824219 368.7256558328437 450.4948311127504 367.45131166568734 450.3400927430788 366.251032441401 449.8848710353798 365.05075321711456 449.42964932768075 363.99429922060847 448.7004017889942 362.93784522410243 447.97115425030773 362.0866176112909 447.01026478184576 361.2353899984794 446.04937531338373 360.6388621582138 444.91269085620047 360.0423343179482 443.7760063990172 359.7351764763324 442.5295911071711 359.4280186347167 441.2831758153249 359.42808281993734 439.99947140414054 359.42814700515794 438.71576699295616 359.73542948676686 437.4693824231262 360.0427119683758 436.22299785329625 360.63935347410427 435.08637305458035 361.23599497983275 433.94974825586445 362.0873186773348 432.98894391496805 362.9386423748369 432.02813957407164 363.99516929081443 431.29899768443084 365.051696206792 430.56985579479004 366.2520209472477 430.11475411728935 367.45234568770337 429.65965243978866 368.7267053223249 429.5050415053073 370.00106495694644 429.35043057082595 370.00053247847325 429.350430544202 Z" fill="#141414"/>
  <path d="M 370 479.3504305175781 Q 370 479.3504305175781 400.61875 479.7628713214111 431.2375 480.17531212524415 460.861140625 480.4743317080231 490.48478125 480.773351290802 519.6432082421875 480.9901404883167 548.801635234375 481.2069296858314 550.2054987378447 481.4370888815911 551.6093622413144 481.66724807735073 552.866240865387 482.3336279360775 554.1231194894594 483.0000077948043 555.1014177104105 484.03283816938233 556.0797159313616 485.0656685439603 556.6770056672121 486.3568118215305 557.2742954030626 487.64795509910067 557.4280402607998 489.06222823767274 557.5817851185369 490.4765013762448 557.275887970971 491.8658296048784 556.969990823405 493.25515783351193 556.2364791826351 494.47407811992207 555.5029675418652 495.69299840633215 554.4186402703083 496.6138894747679 553.3343129987512 497.53478054320374 552.0126994479738 498.06122485570836 550.6910858971963 498.58766916821304 549.2705593548369 498.6645478662995 547.8500328124775 498.7414265643859 546.4793227825037 498.3606904280705 545.10861275253 497.97995429175506 543.9312329369125 497.1814664950146 542.7538531212949 496.38297869827414 541.8930754975268 495.25034112420764 541.0322978737587 494.11770355014113 540.5782460862717 492.7695036517407 540.1241942987849 491.4213037533402 540.1244076895871 489.9986984158585 540.1246210803894 488.5760930783768 540.5790773074075 487.22802945617957 541.0335335344255 485.8799658339823 541.8946509107257 484.74758654416775 542.7557682870258 483.6152072543532 543.9333875959967 482.81707270748404 545.1110069049677 482.01893816061494 546.4818310940987 481.6386132544355 547.8526552832296 481.25828834825603 549.2731586980562 481.33559320083924 550.6936621128829 481.41289805342245 552.0151176708964 481.9397388262964 553.3365732289099 482.4665795991703 554.4206241843557 483.3877959243426 555.5046751398015 484.30901224951486 556.237821071483 485.52815253456254 556.9709670031644 486.74729281961015 557.2764473385027 488.13671275486683 557.5819276738409 489.5261326901235 557.4277585410871 490.9403596415966 557.2735894083332 492.35458659306977 556.6759123563834 493.64555062562044 556.0782353044334 494.9365146581711 555.099627278398 495.96905149680987 554.1210192523627 497.0015883354486 552.863940770895 497.6675911006067 551.6068622894275 498.3335938657649 550.2029298013739 498.5633318921226 548.7989973133203 498.7930699184804 548.8003162738477 498.7930701163245 548.801635234375 498.7930703141686 519.6432082421875 499.0098595116833 490.48478125 499.226648709198 460.861140625 499.5256682919769 431.2375 499.82468787475585 400.61875 500.2371286785889 370 500.6495694824219 368.7256558328437 500.4948311127504 367.45131166568734 500.3400927430788 366.251032441401 499.8848710353798 365.05075321711456 499.42964932768075 363.99429922060847 498.7004017889942 362.93784522410243 497.97115425030773 362.0866176112909 497.01026478184576 361.2353899984794 496.04937531338373 360.6388621582138 494.91269085620047 360.0423343179482 493.7760063990172 359.7351764763324 492.5295911071711 359.4280186347167 491.2831758153249 359.42808281993734 489.99947140414054 359.42814700515794 488.71576699295616 359.73542948676686 487.4693824231262 360.0427119683758 486.22299785329625 360.63935347410427 485.08637305458035 361.23599497983275 483.94974825586445 362.0873186773348 482.98894391496805 362.9386423748369 482.02813957407164 363.99516929081443 481.29899768443084 365.051696206792 480.56985579479004 366.2520209472477 480.11475411728935 367.45234568770337 479.65965243978866 368.7267053223249 479.5050415053073 370.00106495694644 479.35043057082595 370.00053247847325 479.350430544202 Z" fill="#141414"/>
  <path d="M 370 529.2193829765483 Q 370 529.2193829765483 387.30625 529.6498428172729 404.6125 530.0803026579975 421.356296875 530.3495159856234 438.10009375 530.6187293132492 454.58094378906253 530.7733858890622 471.061793828125 530.9280424648751 472.51018325679445 531.1655015520481 473.95857268546393 531.4029606392211 475.25531535861404 532.0904758716298 476.55205803176415 532.7779911040385 477.56138464920923 533.8435794553634 478.5707112666543 534.9091678066883 479.18694506511156 536.2412618952576 479.8031788635688 537.573355983827 479.96180000166976 539.0324852069289 480.12042113977077 540.4916144300308 479.8048219424844 541.9250075728339 479.48922274519805 543.3584007156369 478.7324465317903 544.6159811377104 477.9756703183826 545.873561559784 476.8569517581668 546.8236602589681 475.738233197951 547.7737589581521 474.3747024194948 548.3169003498404 473.0111716410386 548.8600417415286 471.54559067678343 548.9393587786358 470.0800097125283 549.0186758157431 468.6658252763076 548.6258639835467 467.25164084008685 548.2330521513502 466.03691841568127 547.4092389523732 464.8221959912757 546.5854257533962 463.9341173371761 545.4168646470371 463.0460386830765 544.2483035406781 462.5775858687972 542.8573431832428 462.1091330545178 541.4663828258076 462.10935321337325 539.9986571338977 462.1095733722287 538.5309314419877 462.5784434535286 537.1401116829879 463.0473135348286 535.7492919239882 463.9357427172913 534.5809972938066 464.824171899754 533.4127026636249 466.0391414134531 532.5892539184414 467.2541109271521 531.7658051732578 468.6684131432824 531.3734176140624 470.0827153594127 530.981030054867 471.54827246260595 531.0607867626877 473.01382956579914 531.1405434705084 474.3771973404814 531.6840938969826 475.7405651151637 532.227644323457 476.8589985954317 533.1780785954495 477.97743207569965 534.1285128674422 478.7338309809315 535.3863202657852 479.4902298861633 536.6441276641283 479.8053990513113 538.0776154221865 480.12056821645933 539.5111031802445 479.96150934673597 540.970184751345 479.80245047701254 542.4292663224453 479.18581707806527 543.7611754809336 478.569183679118 545.093084639422 477.559537430592 546.1583701448149 476.549891182066 547.2236556502075 475.25294231270266 547.9107818288819 473.95599344333937 548.5979080075564 472.5075328421224 548.8349325672216 471.0590722409053 549.0719571268868 471.0604330345152 549.0719573310058 471.061793828125 549.0719575351249 454.58094378906253 549.2266141109378 438.10009375 549.3812706867508 421.356296875 549.6504840143766 404.6125 549.9196973420025 387.30625 550.3501571827271 370 550.7806170234517 368.7099744787939 550.6239745314697 367.4199489575878 550.4673320394876 366.2048997802858 550.0065086325353 364.9898506029838 549.545685225583 363.9203964848595 548.8074639817243 362.85094236673524 548.0692427378655 361.9892400313821 547.0965291104785 361.12753769602904 546.1238154830914 360.52366932366476 544.9731436339027 359.9198009513005 543.8224717847139 359.6088634000995 542.5607188156623 359.2979258488985 541.2989658466107 359.2979908239459 539.9994648995407 359.2980557989933 538.6999639524709 359.60911952393633 537.4382420834831 359.9201832488793 536.1765202144953 360.524166685409 535.025908757897 361.12815012193863 533.8752973012987 361.9899497243458 532.9026698490086 362.85174932675295 531.9300423967186 363.92127726165427 531.1919281019625 364.9908051965555 530.4538138072065 366.2059004501229 529.9931119074758 367.42099570369027 529.5324100077453 368.7110368826954 529.3758965190984 370.0010780617005 529.2193830304515 370.0005390308503 529.2193830034998 Z" fill="#141414"/>
  <path d="M 370 579.3504305175782 Q 370 579.3504305175782 392.63125 579.7628713214111 415.2625 580.1753121252441 437.158234375 580.4743317080231 459.05396874999997 580.773351290802 480.60584957031244 580.9901404883167 502.157730390625 581.2069296858315 503.5615938940947 581.4370888815911 504.9654573975644 581.6672480773508 506.2223360216369 582.3336279360776 507.47921464570936 583.0000077948043 508.45751286666047 584.0328381693823 509.43581108761157 585.0656685439603 510.03310082346206 586.3568118215305 510.63039055931256 587.6479550991007 510.7841354170497 589.0622282376728 510.9378802747869 590.4765013762448 510.6319831272209 591.8658296048784 510.326085979655 593.2551578335119 509.5925743388851 594.4740781199221 508.85906269811517 595.6929984063321 507.7747354265582 596.6138894747679 506.6904081550012 597.5347805432037 505.36879460422375 598.0612248557084 504.0471810534463 598.587669168213 502.62665451108694 598.6645478662995 501.2061279687275 598.7414265643858 499.8354179387537 598.3606904280705 498.46470790878 597.979954291755 497.28732809316244 597.1814664950145 496.1099482775449 596.3829786982741 495.24917065377684 595.2503411242076 494.3883930300088 594.1177035501411 493.9343412425219 592.7695036517407 493.480289455035 591.4213037533402 493.48050284583724 589.9986984158586 493.48071623663947 588.5760930783769 493.93517246365747 587.2280294561796 494.38962869067547 585.8799658339823 495.2507460669757 584.7475865441677 496.1118634432759 583.6152072543532 497.2894827522468 582.8170727074842 498.46710206121764 582.018938160615 499.83792625034863 581.6386132544355 501.2087504394796 581.2582883482561 502.6292538543062 581.3355932008393 504.04975726913284 581.4128980534225 505.37121282714634 581.9397388262964 506.6926683851598 582.4665795991704 507.7767193406056 583.3877959243426 508.8607702960515 584.3090122495149 509.59391622773296 585.5281525345625 510.32706215941437 586.7472928196102 510.6325424947526 588.1367127548668 510.93802283009086 589.5261326901235 510.783853697337 590.9403596415966 510.62968456458316 592.3545865930697 510.0320075126333 593.6455506256204 509.4343304606834 594.9365146581711 508.455722434648 595.9690514968098 507.4771144086126 597.0015883354486 506.220035927145 597.6675911006066 504.96295744567743 598.3335938657648 503.5590249576239 598.5633318921225 502.1550924695703 598.7930699184803 502.15641143009765 598.7930701163244 502.157730390625 598.7930703141685 480.60584957031244 599.0098595116833 459.05396874999997 599.226648709198 437.158234375 599.5256682919769 415.2625 599.8246878747559 392.63125 600.2371286785889 370 600.6495694824218 368.7256558328437 600.4948311127503 367.45131166568734 600.3400927430787 366.251032441401 599.8848710353797 365.05075321711456 599.4296493276806 363.9942992206085 598.7004017889942 362.9378452241025 597.9711542503077 362.086617611291 597.0102647818458 361.23538999847943 596.0493753133837 360.63886215821384 594.9126908562005 360.04233431794825 593.7760063990172 359.7351764763325 592.5295911071711 359.42801863471675 591.283175815325 359.42808281993734 589.9994714041406 359.428147005158 588.7157669929562 359.7354294867669 587.4693824231263 360.04271196837584 586.2229978532963 360.6393534741043 585.0863730545805 361.2359949798328 583.9497482558645 362.0873186773349 582.9889439149681 362.93864237483695 582.0281395740717 363.9951692908145 581.2989976844309 365.05169620679203 580.5698557947901 366.25202094724773 580.1147541172894 367.45234568770337 579.6596524397887 368.7267053223249 579.5050415053074 370.00106495694644 579.350430570826 370.00053247847325 579.350430544202 Z" fill="#141414"/>
  <circle cx="320" cy="220" r="16" fill="#141414"/>
  <circle cx="620" cy="220" r="16" fill="#141414"/>
  <circle cx="680" cy="280" r="14" fill="#141414"/>
  <circle cx="680" cy="700" r="14" fill="#141414"/>
  <circle cx="320" cy="700" r="14" fill="#141414"/>
</svg>