<svg xmlns="http://www.w3.org/2000/svg" viewBox="0 0 100 88">
  <rect width="100" height="88" fill="#F8ECD4" />
  <line x1="60.1" y1="84.5" x2="3.3" y2="22.7" stroke="#6B5A2A" stroke-width="3.8" opacity="0.18" />  <circle cx="35.5" cy="55.5" r="10.8" fill="#6B5A2A" opacity="0.2245" />  <rect x="39.3" y="32.0" width="21.4" height="3" rx="1.5" fill="#6B5A2A" opacity="0.7" />  <line x1="59.5" y1="42.2" x2="48.0" y2="52.9" stroke="#6B5A2A" stroke-width="3.4" opacity="0.18" />  <line x1="24.3" y1="44.9" x2="24.3" y2="44.9" stroke="#6B5A2A" stroke-width="2.0" opacity="0.18" />  <circle cx="34.6" cy="44.6" r="8.9" fill="#6B5A2A" opacity="0.23785" />  <line x1="45.6" y1="68.4" x2="0.0" y2="0.0" stroke="#6B5A2A" stroke-width="1.0" opacity="0.18" />  <rect x="33.7" y="48.0" width="32.7" height="3" rx="1.5" fill="#6B5A2A" opacity="0.7" />  <line x1="4.2" y1="40.0" x2="0.1" y2="0.0" stroke="#6B5A2A" stroke-width="1.0" opacity="0.18" />  <circle cx="47.4" cy="60.1" r="9.1" fill="#6B5A2A" opacity="0.22025" />  <line x1="47.7" y1="72.0" x2="77.7" y2="53.5" stroke="#6B5A2A" stroke-width="1.0" opacity="0.18" />  <rect x="41.4" y="56.0" width="17.2" height="3" rx="1.5" fill="#6B5A2A" opacity="0.7" />  <line x1="3.3" y1="22.7" x2="77.6" y2="42.0" stroke="#6B5A2A" stroke-width="1.2" opacity="0.18" />  <rect x="32.1" y="40.0" width="35.7" height="3" rx="1.5" fill="#6B5A2A" opacity="0.7" />  <line x1="69.8" y1="68.3" x2="4.2" y2="40.0" stroke="#6B5A2A" stroke-width="3.4" opacity="0.18" />
</svg>