<svg xmlns="http://www.w3.org/2000/svg" viewBox="0 0 100 88"><rect width="100" height="88" fill="#D4EDD8" /><circle cx="1393.4" cy="4047.9" r="181.9" fill="#2A6B4A" opacity="0.096" /> <circle cx="537.3" cy="909.8" r="521.3" fill="#2A6B4A" opacity="-2.9926000000000004" /> <circle cx="1608.1" cy="2931.2" r="165.2" fill="#2A6B4A" opacity="0.096" /> <circle cx="5.0" cy="5.0" r="2.0" fill="#2A6B4A" opacity="0.096" /> <circle cx="4963.6" cy="677.5" r="313.0" fill="#2A6B4A" opacity="0.096" /> <circle cx="380.7" cy="3122.5" r="332.6" fill="#2A6B4A" opacity="0.096" /> <circle cx="3387.9" cy="27.9" r="2.0" fill="#2A6B4A" opacity="0.096" /> <circle cx="2636.8" cy="3776.4" r="422.8" fill="#2A6B4A" opacity="-1.9306999999999999" /> <circle cx="820.5" cy="2127.1" r="2.0" fill="#2A6B4A" opacity="0.096" /> <circle cx="5.0" cy="5.0" r="2.0" fill="#2A6B4A" opacity="0.096" /> <circle cx="3783.0" cy="789.3" r="62.3" fill="#2A6B4A" opacity="0.096" /> <circle cx="2704.0" cy="3577.6" r="2.0" fill="#2A6B4A" opacity="0.096" /> <circle cx="5.0" cy="5.0" r="2.0" fill="#2A6B4A" opacity="0.096" /> <rect x="-364.0" y="48.0" width="828.0" height="3" rx="1.5" fill="#2A6B4A" opacity="0.7" /> <rect x="4.0" y="56.0" width="92.1" height="3" rx="1.5" fill="#2A6B4A" opacity="0.7" /> <rect x="-275.5" y="40.0" width="651.1" height="3" rx="1.5" fill="#2A6B4A" opacity="0.7" /> <circle cx="5.0" cy="5.0" r="2.0" fill="#2A6B4A" opacity="0.096" /> <circle cx="5.2" cy="5.0" r="2.0" fill="#2A6B4A" opacity="0.096" /> <circle cx="563.7" cy="1592.9" r="378.9" fill="#2A6B4A" opacity="-1.8489" /> <rect x="36.8" y="32.0" width="26.4" height="3" rx="1.5" fill="#2A6B4A" opacity="0.7" /> <circle cx="3930.3" cy="5063.5" r="263.7" fill="#2A6B4A" opacity="0.096" /> <circle cx="5.0" cy="5.0" r="2.0" fill="#2A6B4A" opacity="0.096" /></svg>