<svg xmlns="http://www.w3.org/2000/svg" viewBox="0 0 100 88">
  <rect width="100" height="88" fill="#C8E4F8" />
  <rect x="40.2" y="40.0" width="19.5" height="3" rx="1.5" fill="#2A4A6B" opacity="0.7" />  <rect x="32.3" y="32.0" width="35.4" height="3" rx="1.5" fill="#2A4A6B" opacity="0.7" />  <rect x="73.7" y="34.1" width="4.0" height="53.9" fill="#2A4A6B" opacity="0.108" rx="2.0" />  <rect x="29.4" y="28.0" width="9.3" height="60.0" fill="#2A4A6B" opacity="0.108" rx="4.7" />  <circle cx="29.9" cy="34.5" r="7.6" fill="#2A4A6B" opacity="0.2498" />  <rect x="51.5" y="54.5" width="8.2" height="33.5" fill="#2A4A6B" opacity="0.108" rx="4.1" />  <circle cx="36.7" cy="54.4" r="7.3" fill="#2A4A6B" opacity="0.2108" />  <rect x="40.9" y="56.0" width="18.1" height="3" rx="1.5" fill="#2A4A6B" opacity="0.7" />  <rect x="41.4" y="48.0" width="17.2" height="3" rx="1.5" fill="#2A4A6B" opacity="0.7" />  <rect x="16.0" y="29.9" width="5.4" height="58.1" fill="#2A4A6B" opacity="0.108" rx="2.7" />  <circle cx="68.7" cy="15.2" r="10.8" fill="#2A4A6B" opacity="0.20945" />  <rect x="60.4" y="24.8" width="8.1" height="63.2" fill="#2A4A6B" opacity="0.108" rx="4.0" />  <rect x="38.7" y="24.0" width="6.8" height="64.0" fill="#2A4A6B" opacity="0.108" rx="3.4" />  <rect x="7.4" y="28.4" width="8.9" height="59.6" fill="#2A4A6B" opacity="0.108" rx="4.4" />  <rect x="82.5" y="57.7" width="4.0" height="30.3" fill="#2A4A6B" opacity="0.108" rx="2.0" />
</svg>