<svg xmlns="http://www.w3.org/2000/svg" viewBox="0 0 100 88"><rect width="100" height="88" fill="#F8ECD4" /><line x1="2347.6" y1="3305.2" x2="2347.6" y2="3305.2" stroke="#6B5A2A" stroke-width="94.9" opacity="0.18" /> <circle cx="2300.5" cy="685.5" r="3.9" fill="#6B5A2A" opacity="-1.62795" /> <rect x="-429.8" y="48.0" width="959.6" height="3" rx="1.5" fill="#6B5A2A" opacity="0.7" /> <line x1="1551.3" y1="2533.8" x2="0.0" y2="0.0" stroke="#6B5A2A" stroke-width="1.0" opacity="0.18" /> <circle cx="950.8" cy="1685.0" r="327.8" fill="#6B5A2A" opacity="-1.60785" /> <line x1="3713.0" y1="2548.7" x2="1558.6" y2="3344.8" stroke="#6B5A2A" stroke-width="47.2" opacity="0.18" /> <rect x="-156.6" y="32.0" width="413.1" height="3" rx="1.5" fill="#6B5A2A" opacity="0.7" /> <line x1="1156.0" y1="7.9" x2="2941.1" y2="1732.3" stroke="#6B5A2A" stroke-width="130.9" opacity="0.18" /> <rect x="-49.7" y="40.0" width="199.4" height="3" rx="1.5" fill="#6B5A2A" opacity="0.7" /> <circle cx="1428.6" cy="2193.4" r="374.6" fill="#6B5A2A" opacity="-0.9238" /> <line x1="3715.7" y1="2999.2" x2="3408.2" y2="3267.4" stroke="#6B5A2A" stroke-width="149.5" opacity="0.18" /> <line x1="1558.6" y1="3344.8" x2="9.0" y2="4595.7" stroke="#6B5A2A" stroke-width="118.6" opacity="0.18" /> <line x1="5222.4" y1="2559.0" x2="2879.3" y2="2858.2" stroke="#6B5A2A" stroke-width="1.0" opacity="0.18" /> <line x1="2941.1" y1="1732.3" x2="0.1" y2="0.0" stroke="#6B5A2A" stroke-width="1.0" opacity="0.18" /> <rect x="-137.9" y="56.0" width="375.7" height="3" rx="1.5" fill="#6B5A2A" opacity="0.7" /></svg>