<svg xmlns="http://www.w3.org/2000/svg" viewBox="0 0 100 88">
  <rect width="100" height="88" fill="#D4F8EC" />
  <polygon points="77.1,17.1 53.8,19.8 68.6,35.7" fill="#2A6B5A" opacity="0.144" />  <polygon points="31.5,38.5 60.9,70.2 22.2,47.7" fill="#2A6B5A" opacity="0.144" />  <polygon points="30.1,22.7 31.6,31.8 46.5,47.9" fill="#2A6B5A" opacity="0.144" />  <rect x="40.9" y="56.0" width="18.2" height="3" rx="1.5" fill="#2A6B5A" opacity="0.7" />  <rect x="41.5" y="32.0" width="17.0" height="3" rx="1.5" fill="#2A6B5A" opacity="0.7" />  <circle cx="44.5" cy="20.7" r="12.2" fill="#2A6B5A" opacity="0.22955" />  <circle cx="46.5" cy="47.9" r="4.9" fill="#2A6B5A" opacity="0.2451" />  <rect x="40.4" y="40.0" width="19.2" height="3" rx="1.5" fill="#2A6B5A" opacity="0.7" />  <polygon points="44.5,20.7 75.3,24.8 28.0,26.2" fill="#2A6B5A" opacity="0.144" />  <circle cx="53.8" cy="19.8" r="11.1" fill="#2A6B5A" opacity="0.2039" />  <polygon points="37.4,40.6 54.1,26.1 44.3,54.5" fill="#2A6B5A" opacity="0.144" />  <rect x="33.9" y="48.0" width="32.3" height="3" rx="1.5" fill="#2A6B5A" opacity="0.7" />
</svg>