<svg xmlns="http://www.w3.org/2000/svg" viewBox="0 0 100 88">
  <rect width="100" height="88" fill="#C8E4F8" />
  <rect x="32.3" y="32.0" width="35.5" height="3" rx="1.5" fill="#2A4A6B" opacity="0.7" />  <rect x="38.8" y="30.5" width="6.5" height="57.5" fill="#2A4A6B" opacity="0.108" rx="3.3" />  <circle cx="33.9" cy="51.0" r="5.2" fill="#2A4A6B" opacity="0.2067" />  <circle cx="35.3" cy="50.1" r="7.2" fill="#2A4A6B" opacity="0.22385" />  <rect x="17.6" y="25.4" width="5.5" height="62.6" fill="#2A4A6B" opacity="0.108" rx="2.8" />  <circle cx="43.9" cy="45.3" r="11.7" fill="#2A4A6B" opacity="0.23005" />  <rect x="62.9" y="71.2" width="7.7" height="16.8" fill="#2A4A6B" opacity="0.108" rx="3.9" />  <rect x="29.6" y="56.8" width="8.6" height="31.2" fill="#2A4A6B" opacity="0.108" rx="4.3" />  <rect x="40.6" y="48.0" width="18.9" height="3" rx="1.5" fill="#2A4A6B" opacity="0.7" />  <rect x="49.9" y="39.7" width="5.0" height="48.3" fill="#2A4A6B" opacity="0.108" rx="2.5" />  <rect x="73.3" y="63.6" width="4.0" height="24.4" fill="#2A4A6B" opacity="0.108" rx="2.0" />  <rect x="35.0" y="56.0" width="30.1" height="3" rx="1.5" fill="#2A4A6B" opacity="0.7" />  <rect x="82.8" y="60.2" width="4.0" height="27.8" fill="#2A4A6B" opacity="0.108" rx="2.0" />  <rect x="32.7" y="40.0" width="34.6" height="3" rx="1.5" fill="#2A4A6B" opacity="0.7" />  <rect x="6.2" y="51.1" width="6.4" height="36.9" fill="#2A4A6B" opacity="0.108" rx="3.2" />
</svg>