<svg xmlns="http://www.w3.org/2000/svg" viewBox="0 0 100 88"><rect width="100" height="88" fill="#F8E0C8" /><circle cx="2114.8" cy="1545.3" r="10.2" fill="#6B3A2A" opacity="-1.4957000000000003" /> <rect x="-226.3" y="32.0" width="552.6" height="3" rx="1.5" fill="#6B3A2A" opacity="0.7" /> <circle cx="3396.7" cy="107.8" r="2.0" fill="#6B3A2A" opacity="0.096" /> <circle cx="5.0" cy="5.0" r="2.0" fill="#6B3A2A" opacity="0.096" /> <circle cx="5.0" cy="5.0" r="2.0" fill="#6B3A2A" opacity="0.096" /> <circle cx="2281.2" cy="91.4" r="479.3" fill="#6B3A2A" opacity="0.2141" /> <circle cx="5.0" cy="5.0" r="2.0" fill="#6B3A2A" opacity="0.096" /> <circle cx="5.0" cy="5.0" r="2.0" fill="#6B3A2A" opacity="0.096" /> <circle cx="4083.9" cy="2987.9" r="107.9" fill="#6B3A2A" opacity="0.096" /> <rect x="-689.2" y="40.0" width="1478.5" height="3" rx="1.5" fill="#6B3A2A" opacity="0.7" /> <circle cx="2314.5" cy="1754.7" r="179.4" fill="#6B3A2A" opacity="-1.0692000000000002" /> <circle cx="4291.3" cy="34.0" r="2.0" fill="#6B3A2A" opacity="0.096" /> <circle cx="5.0" cy="5.0" r="2.0" fill="#6B3A2A" opacity="0.096" /> <circle cx="5.2" cy="5.0" r="2.0" fill="#6B3A2A" opacity="0.096" /> <rect x="-367.2" y="48.0" width="834.5" height="3" rx="1.5" fill="#6B3A2A" opacity="0.7" /> <circle cx="3409.5" cy="3103.1" r="2.0" fill="#6B3A2A" opacity="0.096" /> <circle cx="2755.0" cy="2659.3" r="273.9" fill="#6B3A2A" opacity="0.096" /> <circle cx="3147.3" cy="2063.0" r="211.5" fill="#6B3A2A" opacity="0.096" /> <circle cx="2704.5" cy="1381.1" r="229.0" fill="#6B3A2A" opacity="0.096" /> <circle cx="846.8" cy="4523.5" r="9.9" fill="#6B3A2A" opacity="0.096" /> <circle cx="69.6" cy="3479.8" r="269.3" fill="#6B3A2A" opacity="0.096" /> <rect x="-2.2" y="56.0" width="104.4" height="3" rx="1.5" fill="#6B3A2A" opacity="0.7" /></svg>