<svg xmlns="http://www.w3.org/2000/svg" viewBox="0 0 100 88">
  <rect width="100" height="88" fill="#E8F8D4" />
  <circle cx="22.9" cy="24.4" r="3.2" fill="#4A6B2A" opacity="0.096" />  <rect x="43.9" y="40.0" width="12.1" height="3" rx="1.5" fill="#4A6B2A" opacity="0.7" />  <circle cx="41.2" cy="79.1" r="8.0" fill="#4A6B2A" opacity="0.096" />  <circle cx="5.0" cy="5.0" r="2.0" fill="#4A6B2A" opacity="0.096" />  <circle cx="90.5" cy="43.8" r="2.0" fill="#4A6B2A" opacity="0.096" />  <circle cx="89.2" cy="31.8" r="2.0" fill="#4A6B2A" opacity="0.096" />  <circle cx="37.9" cy="33.6" r="12.4" fill="#4A6B2A" opacity="0.2051" />  <circle cx="31.8" cy="30.0" r="2.0" fill="#4A6B2A" opacity="0.096" />  <circle cx="5.0" cy="5.0" r="2.0" fill="#4A6B2A" opacity="0.096" />  <rect x="32.5" y="32.0" width="34.9" height="3" rx="1.5" fill="#4A6B2A" opacity="0.7" />  <circle cx="78.9" cy="82.9" r="7.7" fill="#4A6B2A" opacity="0.096" />  <circle cx="5.0" cy="5.0" r="2.0" fill="#4A6B2A" opacity="0.096" />  <circle cx="77.0" cy="62.6" r="13.0" fill="#4A6B2A" opacity="0.23755" />  <circle cx="5.0" cy="5.0" r="2.0" fill="#4A6B2A" opacity="0.096" />  <rect x="44.0" y="56.0" width="12.0" height="3" rx="1.5" fill="#4A6B2A" opacity="0.7" />  <circle cx="31.9" cy="29.4" r="12.0" fill="#4A6B2A" opacity="0.24004999999999999" />  <circle cx="5.2" cy="5.0" r="2.0" fill="#4A6B2A" opacity="0.096" />  <circle cx="85.8" cy="35.4" r="4.3" fill="#4A6B2A" opacity="0.096" />  <rect x="35.0" y="48.0" width="29.9" height="3" rx="1.5" fill="#4A6B2A" opacity="0.7" />  <circle cx="51.3" cy="28.5" r="3.9" fill="#4A6B2A" opacity="0.096" />  <circle cx="5.0" cy="5.0" r="2.0" fill="#4A6B2A" opacity="0.096" />  <circle cx="47.3" cy="30.8" r="4.4" fill="#4A6B2A" opacity="0.096" />
</svg>