<svg xmlns="http://www.w3.org/2000/svg" viewBox="0 0 100 88"><rect width="100" height="88" fill="#E8F8D4" /><line x1="2484.4" y1="647.9" x2="0.0" y2="0.0" stroke="#4A6B2A" stroke-width="1.0" opacity="0.18" /> <circle cx="1510.6" cy="442.0" r="546.3" fill="#4A6B2A" opacity="-2.5284" /> <circle cx="252.1" cy="2036.1" r="558.7" fill="#4A6B2A" opacity="0.056599999999999984" /> <rect x="-169.0" y="40.0" width="438.0" height="3" rx="1.5" fill="#4A6B2A" opacity="0.7" /> <line x1="5439.0" y1="3371.5" x2="274.3" y2="3020.6" stroke="#4A6B2A" stroke-width="218.3" opacity="0.18" /> <line x1="386.8" y1="3066.4" x2="386.8" y2="3066.4" stroke="#4A6B2A" stroke-width="16.5" opacity="0.18" /> <circle cx="932.8" cy="3169.6" r="386.1" fill="#4A6B2A" opacity="-1.4923" /> <line x1="3911.5" y1="1739.0" x2="4674.6" y2="1338.7" stroke="#4A6B2A" stroke-width="218.6" opacity="0.18" /> <line x1="274.3" y1="3020.6" x2="0.3" y2="0.0" stroke="#4A6B2A" stroke-width="1.0" opacity="0.18" /> <rect x="-480.3" y="32.0" width="1060.5" height="3" rx="1.5" fill="#4A6B2A" opacity="0.7" /> <rect x="-111.3" y="48.0" width="322.5" height="3" rx="1.5" fill="#4A6B2A" opacity="0.7" /> <line x1="5556.8" y1="2291.0" x2="2603.4" y2="3442.1" stroke="#4A6B2A" stroke-width="157.5" opacity="0.18" /> <line x1="6122.7" y1="2069.6" x2="736.2" y2="4781.0" stroke="#4A6B2A" stroke-width="1.0" opacity="0.18" /> <rect x="-98.5" y="56.0" width="297.0" height="3" rx="1.5" fill="#4A6B2A" opacity="0.7" /> <line x1="4674.6" y1="1338.7" x2="3831.2" y2="5388.0" stroke="#4A6B2A" stroke-width="12.0" opacity="0.18" /></svg>