<svg xmlns="http://www.w3.org/2000/svg" viewBox="0 0 100 88">
  <rect width="100" height="88" fill="#F8ECD4" />
  <circle cx="38.8" cy="28.3" r="2.0" fill="#6B5A2A" opacity="0.096" />  <circle cx="27.0" cy="71.6" r="3.9" fill="#6B5A2A" opacity="0.2137" />  <rect x="37.4" y="32.0" width="25.1" height="3" rx="1.5" fill="#6B5A2A" opacity="0.7" />  <rect x="37.9" y="56.0" width="24.1" height="3" rx="1.5" fill="#6B5A2A" opacity="0.7" />  <circle cx="5.0" cy="5.0" r="2.0" fill="#6B5A2A" opacity="0.096" />  <rect x="40.5" y="48.0" width="19.0" height="3" rx="1.5" fill="#6B5A2A" opacity="0.7" />  <circle cx="5.0" cy="5.0" r="2.0" fill="#6B5A2A" opacity="0.096" />  <circle cx="10.9" cy="61.6" r="2.4" fill="#6B5A2A" opacity="0.096" />  <circle cx="33.7" cy="41.3" r="6.8" fill="#6B5A2A" opacity="0.21905" />  <circle cx="24.0" cy="57.1" r="9.2" fill="#6B5A2A" opacity="0.2467" />  <circle cx="55.0" cy="77.2" r="4.7" fill="#6B5A2A" opacity="0.096" />  <circle cx="92.8" cy="12.2" r="5.3" fill="#6B5A2A" opacity="0.096" />  <rect x="40.1" y="40.0" width="19.9" height="3" rx="1.5" fill="#6B5A2A" opacity="0.7" />  <circle cx="5.0" cy="5.0" r="2.0" fill="#6B5A2A" opacity="0.096" />  <circle cx="5.0" cy="5.0" r="2.0" fill="#6B5A2A" opacity="0.096" />  <circle cx="53.8" cy="36.7" r="2.0" fill="#6B5A2A" opacity="0.096" />  <circle cx="60.7" cy="32.1" r="4.1" fill="#6B5A2A" opacity="0.096" />  <circle cx="83.0" cy="14.0" r="2.6" fill="#6B5A2A" opacity="0.096" />  <circle cx="5.0" cy="5.0" r="2.0" fill="#6B5A2A" opacity="0.096" />  <circle cx="79.8" cy="43.9" r="7.2" fill="#6B5A2A" opacity="0.096" />  <circle cx="5.2" cy="5.0" r="2.0" fill="#6B5A2A" opacity="0.096" />  <circle cx="25.6" cy="40.3" r="2.0" fill="#6B5A2A" opacity="0.096" />
</svg>