<svg xmlns="http://www.w3.org/2000/svg" viewBox="0 0 100 88">
  <rect width="100" height="88" fill="#D4F8EC" />
  <polygon points="78.4,35.5 69.7,20.6 48.4,48.1" fill="#2A6B5A" opacity="0.144" />  <circle cx="54.2" cy="63.9" r="11.1" fill="#2A6B5A" opacity="0.21875" />  <rect x="37.0" y="48.0" width="26.1" height="3" rx="1.5" fill="#2A6B5A" opacity="0.7" />  <circle cx="60.6" cy="28.4" r="9.2" fill="#2A6B5A" opacity="0.21615" />  <polygon points="44.8,39.5 49.6,71.4 41.2,63.1" fill="#2A6B5A" opacity="0.144" />  <rect x="33.7" y="40.0" width="32.6" height="3" rx="1.5" fill="#2A6B5A" opacity="0.7" />  <rect x="39.9" y="56.0" width="20.1" height="3" rx="1.5" fill="#2A6B5A" opacity="0.7" />  <polygon points="60.6,28.4 57.5,24.3 56.8,56.0" fill="#2A6B5A" opacity="0.144" />  <polygon points="29.6,50.6 62.4,39.0 45.3,43.6" fill="#2A6B5A" opacity="0.144" />  <circle cx="45.3" cy="43.6" r="12.7" fill="#2A6B5A" opacity="0.23845" />  <rect x="38.2" y="32.0" width="23.6" height="3" rx="1.5" fill="#2A6B5A" opacity="0.7" />  <polygon points="25.8,42.4 54.2,63.9 68.9,34.4" fill="#2A6B5A" opacity="0.144" />
</svg>