<svg xmlns="http://www.w3.org/2000/svg" viewBox="0 0 100 88">
  <rect width="100" height="88" fill="#F8E0C8" />
  <rect x="32.7" y="48.0" width="34.7" height="3" rx="1.5" fill="#6B3A2A" opacity="0.7" />  <rect x="38.6" y="40.0" width="22.8" height="3" rx="1.5" fill="#6B3A2A" opacity="0.7" />  <rect x="43.2" y="32.0" width="13.5" height="3" rx="1.5" fill="#6B3A2A" opacity="0.7" />  <circle cx="67.8" cy="56.4" r="5.9" fill="#6B3A2A" opacity="0.20035" />  <polygon points="75.2,34.1 67.8,56.4 37.3,40.0" fill="#6B3A2A" opacity="0.144" />  <polygon points="62.4,36.8 79.6,47.7 51.3,45.8" fill="#6B3A2A" opacity="0.144" />  <polygon points="53.8,45.2 51.9,33.8 72.3,58.3" fill="#6B3A2A" opacity="0.144" />  <circle cx="72.3" cy="58.3" r="8.4" fill="#6B3A2A" opacity="0.2312" />  <circle cx="62.4" cy="36.8" r="12.9" fill="#6B3A2A" opacity="0.2147" />  <polygon points="39.4,65.6 64.8,46.6 20.5,51.1" fill="#6B3A2A" opacity="0.144" />  <polygon points="52.7,15.5 57.4,68.4 39.7,61.2" fill="#6B3A2A" opacity="0.144" />  <rect x="35.1" y="56.0" width="29.7" height="3" rx="1.5" fill="#6B3A2A" opacity="0.7" />
</svg>