<svg xmlns="http://www.w3.org/2000/svg" viewBox="0 0 100 88">
  <rect width="100" height="88" fill="#D4EDD8" />
  <rect x="60.4" y="41.8" width="7.9" height="46.2" fill="#2A6B4A" opacity="0.108" rx="3.9" />  <rect x="36.2" y="40.0" width="27.6" height="3" rx="1.5" fill="#2A6B4A" opacity="0.7" />  <rect x="35.7" y="56.0" width="28.6" height="3" rx="1.5" fill="#2A6B4A" opacity="0.7" />  <circle cx="20.4" cy="22.4" r="12.4" fill="#2A6B4A" opacity="0.24965" />  <rect x="39.2" y="32.0" width="21.6" height="3" rx="1.5" fill="#2A6B4A" opacity="0.7" />  <rect x="29.8" y="60.8" width="9.5" height="27.2" fill="#2A6B4A" opacity="0.108" rx="4.8" />  <circle cx="42.0" cy="52.6" r="4.8" fill="#2A6B4A" opacity="0.203" />  <rect x="73.8" y="23.5" width="4.0" height="64.5" fill="#2A6B4A" opacity="0.108" rx="2.0" />  <rect x="38.9" y="22.6" width="7.3" height="65.4" fill="#2A6B4A" opacity="0.108" rx="3.7" />  <rect x="16.4" y="21.3" width="5.7" height="66.7" fill="#2A6B4A" opacity="0.108" rx="2.9" />  <rect x="33.8" y="48.0" width="32.4" height="3" rx="1.5" fill="#2A6B4A" opacity="0.7" />  <circle cx="68.7" cy="26.4" r="8.5" fill="#2A6B4A" opacity="0.24365" />  <rect x="5.0" y="72.6" width="4.0" height="15.4" fill="#2A6B4A" opacity="0.108" rx="2.0" />  <rect x="49.7" y="62.2" width="9.4" height="25.8" fill="#2A6B4A" opacity="0.108" rx="4.7" />  <rect x="84.4" y="52.9" width="4.0" height="35.1" fill="#2A6B4A" opacity="0.108" rx="2.0" />
</svg>