<svg xmlns="http://www.w3.org/2000/svg" viewBox="0 0 100 88">
  <rect width="100" height="88" fill="#D4EDD8" />
  <rect x="42.5" y="32.0" width="14.9" height="3" rx="1.5" fill="#2A6B4A" opacity="0.7" />  <rect x="60.2" y="22.7" width="7.8" height="65.3" fill="#2A6B4A" opacity="0.108" rx="3.9" />  <rect x="35.9" y="56.0" width="28.2" height="3" rx="1.5" fill="#2A6B4A" opacity="0.7" />  <rect x="39.6" y="39.2" width="7.7" height="48.8" fill="#2A6B4A" opacity="0.108" rx="3.9" />  <rect x="37.5" y="40.0" width="25.0" height="3" rx="1.5" fill="#2A6B4A" opacity="0.7" />  <rect x="17.8" y="48.8" width="7.3" height="39.2" fill="#2A6B4A" opacity="0.108" rx="3.6" />  <rect x="28.3" y="58.4" width="7.7" height="29.6" fill="#2A6B4A" opacity="0.108" rx="3.8" />  <circle cx="25.2" cy="50.2" r="7.4" fill="#2A6B4A" opacity="0.2457" />  <rect x="49.8" y="56.5" width="5.6" height="31.5" fill="#2A6B4A" opacity="0.108" rx="2.8" />  <rect x="5.3" y="68.3" width="4.5" height="19.7" fill="#2A6B4A" opacity="0.108" rx="2.3" />  <circle cx="67.0" cy="51.4" r="8.9" fill="#2A6B4A" opacity="0.228" />  <circle cx="74.8" cy="32.4" r="9.2" fill="#2A6B4A" opacity="0.21965" />  <rect x="84.7" y="29.9" width="4.0" height="58.1" fill="#2A6B4A" opacity="0.108" rx="2.0" />  <rect x="41.4" y="48.0" width="17.2" height="3" rx="1.5" fill="#2A6B4A" opacity="0.7" />  <rect x="72.8" y="58.3" width="4.0" height="29.7" fill="#2A6B4A" opacity="0.108" rx="2.0" />
</svg>