<svg xmlns="http://www.w3.org/2000/svg" viewBox="0 0 100 88">
  <rect width="100" height="88" fill="#DED4F8" />
  <circle cx="5.0" cy="5.0" r="2.0" fill="#4A2A6B" opacity="0.096" />  <circle cx="43.3" cy="33.9" r="2.0" fill="#4A2A6B" opacity="0.096" />  <circle cx="75.6" cy="32.1" r="7.3" fill="#4A2A6B" opacity="0.212" />  <rect x="34.1" y="48.0" width="31.7" height="3" rx="1.5" fill="#4A2A6B" opacity="0.7" />  <rect x="41.2" y="56.0" width="17.7" height="3" rx="1.5" fill="#4A2A6B" opacity="0.7" />  <circle cx="5.0" cy="5.0" r="2.0" fill="#4A2A6B" opacity="0.096" />  <circle cx="41.1" cy="59.8" r="3.8" fill="#4A2A6B" opacity="0.096" />  <circle cx="5.0" cy="5.0" r="2.0" fill="#4A2A6B" opacity="0.096" />  <circle cx="5.0" cy="5.0" r="2.0" fill="#4A2A6B" opacity="0.096" />  <rect x="40.8" y="40.0" width="18.5" height="3" rx="1.5" fill="#4A2A6B" opacity="0.7" />  <circle cx="58.0" cy="56.0" r="7.9" fill="#4A2A6B" opacity="0.2374" />  <circle cx="60.7" cy="29.6" r="10.6" fill="#4A2A6B" opacity="0.21605" />  <circle cx="62.5" cy="11.6" r="2.0" fill="#4A2A6B" opacity="0.096" />  <circle cx="71.8" cy="54.5" r="4.9" fill="#4A2A6B" opacity="0.096" />  <circle cx="66.1" cy="24.7" r="6.1" fill="#4A2A6B" opacity="0.096" />  <circle cx="58.2" cy="75.2" r="6.5" fill="#4A2A6B" opacity="0.096" />  <circle cx="5.2" cy="5.0" r="2.0" fill="#4A2A6B" opacity="0.096" />  <circle cx="5.0" cy="5.0" r="2.0" fill="#4A2A6B" opacity="0.096" />  <circle cx="73.4" cy="79.6" r="7.7" fill="#4A2A6B" opacity="0.096" />  <circle cx="68.6" cy="43.1" r="5.8" fill="#4A2A6B" opacity="0.096" />  <rect x="43.3" y="32.0" width="13.4" height="3" rx="1.5" fill="#4A2A6B" opacity="0.7" />  <circle cx="88.3" cy="28.0" r="2.0" fill="#4A2A6B" opacity="0.096" />
</svg>