<svg xmlns="http://www.w3.org/2000/svg" viewBox="0 0 100 88">
  <rect width="100" height="88" fill="#DED4F8" />
  <circle cx="39.2" cy="30.5" r="11.4" fill="#4A2A6B" opacity="0.2157" />  <rect x="41.1" y="32.0" width="17.9" height="3" rx="1.5" fill="#4A2A6B" opacity="0.7" />  <rect x="44.0" y="40.0" width="12.1" height="3" rx="1.5" fill="#4A2A6B" opacity="0.7" />  <line x1="21.2" y1="8.8" x2="0.3" y2="0.0" stroke="#4A2A6B" stroke-width="1.0" opacity="0.18" />  <line x1="86.9" y1="53.2" x2="0.0" y2="0.0" stroke="#4A2A6B" stroke-width="1.0" opacity="0.18" />  <rect x="32.3" y="56.0" width="35.4" height="3" rx="1.5" fill="#4A2A6B" opacity="0.7" />  <line x1="94.1" y1="28.7" x2="32.6" y2="74.4" stroke="#4A2A6B" stroke-width="4.4" opacity="0.18" />  <line x1="55.0" y1="76.9" x2="60.5" y2="85.4" stroke="#4A2A6B" stroke-width="1.0" opacity="0.18" />  <rect x="33.1" y="48.0" width="33.7" height="3" rx="1.5" fill="#4A2A6B" opacity="0.7" />  <line x1="84.6" y1="66.4" x2="38.0" y2="28.2" stroke="#4A2A6B" stroke-width="2.1" opacity="0.18" />  <circle cx="72.1" cy="50.1" r="12.7" fill="#4A2A6B" opacity="0.20295" />  <line x1="51.0" y1="60.4" x2="51.0" y2="60.4" stroke="#4A2A6B" stroke-width="3.0" opacity="0.18" />  <line x1="38.0" y1="28.2" x2="84.1" y2="48.4" stroke="#4A2A6B" stroke-width="1.8" opacity="0.18" />  <circle cx="50.6" cy="54.8" r="12.4" fill="#4A2A6B" opacity="0.2245" />  <line x1="26.8" y1="74.0" x2="21.2" y2="8.8" stroke="#4A2A6B" stroke-width="4.9" opacity="0.18" />
</svg>