<svg xmlns="http://www.w3.org/2000/svg" viewBox="0 0 100 88"><rect width="100" height="88" fill="#DED4F8" /><rect x="24.1" y="40.0" width="51.9" height="3" rx="1.5" fill="#4A2A6B" opacity="0.7" /> <rect x="-244.9" y="48.0" width="589.8" height="3" rx="1.5" fill="#4A2A6B" opacity="0.7" /> <line x1="475.0" y1="5680.3" x2="6454.9" y2="5270.8" stroke="#4A2A6B" stroke-width="240.6" opacity="0.18" /> <line x1="1296.7" y1="2982.6" x2="0.3" y2="0.0" stroke="#4A2A6B" stroke-width="1.0" opacity="0.18" /> <circle cx="2921.8" cy="1076.2" r="50.5" fill="#4A2A6B" opacity="-2.1681500000000002" /> <line x1="4836.3" y1="1610.1" x2="4836.3" y2="1610.1" stroke="#4A2A6B" stroke-width="194.5" opacity="0.18" /> <line x1="5836.3" y1="1707.1" x2="2545.7" y2="5063.7" stroke="#4A2A6B" stroke-width="52.9" opacity="0.18" /> <rect x="-148.7" y="32.0" width="397.3" height="3" rx="1.5" fill="#4A2A6B" opacity="0.7" /> <line x1="5453.6" y1="5759.6" x2="0.0" y2="0.0" stroke="#4A2A6B" stroke-width="1.0" opacity="0.18" /> <line x1="5989.6" y1="5718.2" x2="5836.3" y2="1707.1" stroke="#4A2A6B" stroke-width="190.0" opacity="0.18" /> <line x1="4725.5" y1="2240.2" x2="1296.7" y2="2982.6" stroke="#4A2A6B" stroke-width="250.9" opacity="0.18" /> <line x1="5754.2" y1="1886.8" x2="6545.0" y2="5496.7" stroke="#4A2A6B" stroke-width="1.0" opacity="0.18" /> <circle cx="1183.9" cy="2755.8" r="257.6" fill="#4A2A6B" opacity="-0.66485" /> <circle cx="3292.2" cy="3811.1" r="627.6" fill="#4A2A6B" opacity="0.012499999999999983" /> <rect x="-142.6" y="56.0" width="385.2" height="3" rx="1.5" fill="#4A2A6B" opacity="0.7" /></svg>